<svg xmlns="http://www.w3.org/2000/svg" class="icon__2tBs- white__1SSXF" viewBox="-7 -1 30 30" preserveAspectRatio="xMidYMid meet" data-testid="lock-icon" aria-hidden="true" role="button" focusable="true"><g><path d="M19.011,11.934l0,-5.211c-0.029,-3.672 -3.148,-6.64 -6.993,-6.64c-3.845,0 -6.963,2.969 -6.99,6.64l-0.002,5.211l-1.945,0c-0.426,0 -0.777,0.335 -0.777,0.744l0,10.406c0,0.409 0.351,0.743 0.777,0.743l17.875,0c0.426,0 0.775,-0.334 0.775,-0.743l0,-10.406c0,-0.409 -0.349,-0.744 -0.775,-0.744l-1.945,0Zm-11.267,-5.211c0,0.005 0.003,0.013 0.003,0.017c0.016,-2.236 1.936,-4.056 4.272,-4.056c2.34,0 4.255,1.821 4.271,4.056c0,-0.004 0.003,-0.012 0.003,-0.017l0,5.211l-8.549,0l0,-5.211Z"/></g></svg>