<svg xmlns="http://www.w3.org/2000/svg" viewBox="0 0 130 130" color="#FFFFFF" data-test="FNC-callSign" style="height: 100%; width: 100%;"><g fill="none" fill-rule="evenodd"><path d="M8 0h122v130H8a8 8 0 01-8-8V8a8 8 0 018-8z"/><circle cx="40" cy="40" r="40" transform="translate(25 25)"/><path d="M88.891 82.066v5.765H41v-5.765h47.891zm-29.545 2.069h-.176l-.298.014c-.746.035-1.476.093-1.765.747l-.052.139h1.294l.05-.074c.128-.16.332-.23.614-.218.212.009.483.003.595.133.132.152.076.344-.363.383-1.795.164-2.34.424-2.326.96.008.374.195.696.876.834.427.086 1.222.062 1.834-.331.039-.007.053-.001.075 0-.01.118.01.194.05.24l.032.031h1.437v-.066l-.056-.039a.411.411 0 01-.153-.18l-.023-.072v-1.509l-.022-.131c-.13-.587-.68-.818-1.454-.856l-.17-.005zm-14.844-.048c-1.23.027-1.87.414-2.12 1.04-.218.573-.147 1.104.484 1.553.702.436 1.295.4 1.897.402 1.32-.102 1.626-.574 1.8-1.095H45.18c-.147.226-.298.452-.764.403-.51-.054-.733-.422-.697-.815.069-.755.478-.787.755-.792.485-.027.567.183.677.39h1.452c-.212-.608-.708-1.073-2.1-1.086zm36.782.03c-1.539.004-2.13.697-2.167 1.402l-.001.096c.023.79.47 1.393 2.08 1.46 1.005.041 1.742-.19 2.185-.792l.09-.135h-1.365c-.169.15-.256.309-.783.29-.484-.017-.731-.232-.732-.54l.006-.087h2.932c.056-1.138-.727-1.697-2.245-1.694zm-30.133-.904h-1.417v3.813h1.41v-1.781c.007-.165.138-.4.67-.437.359-.041.632.158.678.347l.007.056v1.815h1.403v-2.02c-.043-.497-.322-.867-1.362-.893-.422-.01-.834.04-1.214.325l-.14.118h-.035v-1.343zm16.05.917c-.444.002-.86.064-1.273.42-.028.017-.064.041-.077.028l-.005-.018v-.36h-1.384v2.788h1.423v-1.68c0-.294.32-.485.706-.5.484-.019.63.233.65.4l.003.044v1.746h1.38v-2.045c0-.412-.34-.83-1.423-.823zm7.36-.004c-.444.003-.86.064-1.273.42-.029.018-.064.041-.077.028l-.005-.018v-.36h-1.384v2.789h1.422v-1.68c0-.294.32-.486.707-.5.484-.02.63.232.65.4l.003.044v1.745h1.38v-2.045c0-.412-.34-.83-1.423-.823zm13.14-.937h-1.404v3.79h1.404v-3.79zm-28.117 2.482l.062.005c.039.266.046.428-.033.519-.25.284-.604.385-1.05.3-.145-.028-.309-.165-.32-.272-.013-.125.098-.31.315-.342.338-.048.632-.05 1.026-.21zm21.777-.957c.477-.012.757.175.783.513l.001.096H80.52c.069-.384.335-.599.842-.609zm7.53-42.114v38.136l-47.593-.001 6.641-10.425v-3.05h1.924l7.053-11.062v-3.346h2.198l3.72-5.887c1.33.334 2.596.729 3.793 1.167 3.716 1.36 6.763 3.134 8.983 4.788l.235-.312c-2.25-1.676-5.327-3.468-9.082-4.842a38.352 38.352 0 00-3.71-1.148l2.52-3.986h-6.138l-1.468 3.051a38.23 38.23 0 00-4.345-.247l-.252.002.992-2.83h-5.461l-.677 3.204A42.196 42.196 0 0041 47.485V42.6h47.891zm-35.269 3.226c1.434 0 2.824.08 4.166.23L41.103 80.734H41v-.023h.012l12.223-34.884.387-.002zm-5.483.392L41 80.063V47.896l.135-.044a41.844 41.844 0 017.004-1.634zM82.874 67.37c-2 .238-2.95 1.372-3.303 2.88-.26 1.932.312 2.509.89 3.026.728.65 1.75.958 2.867 1.272.688.194 1.486.395 1.376 1.159-.05.354-.277.661-1.182.611-1.12.009-1.432-.54-1.69-1.128l-.091-.207-2.672.595c.352 1.685 1.404 2.78 2.72 3.138 1.982.541 3.254.22 4.293-.418 1.365-.838 2.075-2.574 1.502-4.429-.24-.773-.826-1.378-1.726-1.71-.556-.204-1.103-.473-2.45-.75-.555-.114-.987-.401-.938-.804.03-.261.221-.833 1.165-.821.706.008 1.037.553 1.353 1.033l.072.11 2.494-.79c-.542-1.574-1.692-3.123-4.68-2.767zm-8.386.274h-2.445L70.73 74.26 69.34 67.66H66.44l2.64 11.187h2.655l1.296-6.358 1.327 6.406h2.591l2.656-11.235h-2.348l-1.393 6.503-1.376-6.519zm-16.59.054h-2.821v5.65l-3.401-5.636h-3.278v11.16h2.876l.014-6.405 3.847 6.405h2.763V67.698zm7.989-.022H58.6v11.186h7.384v-2.56h-4.567v-1.947h3.676v-2.414h-3.66v-1.657h4.454v-2.608zm5.57-14.39a6.404 6.404 0 00-4.495 1.826 6.152 6.152 0 00-1.863 4.407c0 1.722.712 3.28 1.863 4.408a6.403 6.403 0 004.496 1.825 6.403 6.403 0 004.496-1.825 6.152 6.152 0 001.862-4.408c0-1.72-.712-3.279-1.862-4.407a6.397 6.397 0 00-4.188-1.818l-.308-.007zm-6.434.043H57.31v12.274h3.608V61.63h3.559v-3.314h-3.52v-1.643h4.331l-.264-3.343zm15.04.021h-3.948l3.54 5.917-3.671 6.308h3.885l1.756-3.017 1.814 3.04 3.994.005-3.832-6.39 3.417-5.842H83.09l-1.489 2.495-1.54-2.516zm-8.596 2.36c.685.04.933.55 1.028.963l.018.086v5.316c-.113.479-.254 1.048-1.134 1.04-.42-.004-.885-.346-1.02-.93l-.026-.139.01-5.452c.123-.523.715-.908 1.124-.884z" fill="currentColor"/></g></svg>