<svg xmlns="http://www.w3.org/2000/svg" viewBox="0 0 130 130" color="#FFFFFF" data-test="FOX-SOUL-callSign" style="height: 100%; width: 100%;"><defs><path d="M19.691 22.338c2.31 0 4.179.68 5.605 2.04 1.426 1.36 2.139 3.156 2.139 5.387 0 2.205-.713 3.994-2.14 5.367-1.425 1.373-3.294 2.06-5.604 2.06-2.324 0-4.199-.68-5.625-2.04-1.425-1.36-2.138-3.156-2.138-5.387 0-2.205.713-3.994 2.138-5.367 1.426-1.373 3.301-2.06 5.625-2.06zm13.334.238v8.056c0 .701.046 1.144.139 1.33.198.516.634.773 1.307.773.356 0 .657-.089.901-.267.244-.179.4-.377.465-.596.066-.218.1-.632.1-1.24v-8.056h5.07v8.666c0 .82-.126 1.679-.377 2.578-.25.9-.92 1.68-2.01 2.34-1.09.661-2.472.992-4.15.992-1.98 0-3.564-.476-4.752-1.428-1.188-.952-1.783-2.446-1.783-4.482v-8.666h5.09zm-26.43-.179c.832 0 1.604.1 2.317.298.713.198 1.479.528 2.297.99l-1.426 3.624c-.488-.383-.967-.66-1.435-.832a4.262 4.262 0 00-1.476-.257c-.356 0-.644.069-.861.207-.218.139-.327.314-.327.524 0 .343.376.587 1.129.731l.93.218c.515.132.912.244 1.189.336.277.092.795.356 1.555.791.759.435 1.138 1.443 1.138 3.025 0 1.528-.568 2.76-1.703 3.696-1.136.936-2.627 1.404-4.476 1.404-1.36 0-2.443-.159-3.248-.475a60.852 60.852 0 01-1.455-.585A9.408 9.408 0 010 35.706l1.604-3.96c1.254.976 2.416 1.465 3.486 1.465.396 0 .71-.073.94-.218a.686.686 0 00.347-.613c0-.316-.102-.51-.307-.583a4.802 4.802 0 00-.525-.158 11.482 11.482 0 00-.772-.128 13.469 13.469 0 01-2.03-.514c-.561-.198-1.07-.616-1.525-1.255-.456-.64-.683-1.4-.683-2.284 0-1.489.564-2.705 1.693-3.647 1.129-.942 2.584-1.414 4.367-1.414zm40.285.179v9.605h4.297v4.694h-9.446v-14.3h5.149zM19.69 26.913c-.74 0-1.35.267-1.832.802s-.723 1.218-.723 2.05c0 .831.238 1.515.713 2.05.475.534 1.09.802 1.842.802.726 0 1.327-.27 1.802-.812.476-.542.713-1.228.713-2.06 0-.805-.237-1.479-.713-2.02a2.296 2.296 0 00-1.802-.812zM13.357.139l.392 5.973H6.447v2.855h5.973v5.886H6.447v7.062H.3V.139h13.057zM38.36.227l2.703 4.62L43.72.227h6.605l-5.973 10.375 6.54 11.248h-6.78l-3.16-5.406-3.117 5.406H31.23l6.43-11.182L31.623.227h6.736zM23.994.532l.281.003c5.602.151 10.073 4.8 10.073 10.525l-.004.285c-.148 5.688-4.711 10.243-10.35 10.243l-.282-.004c-5.623-.15-10.115-4.778-10.115-10.524C13.597 5.24 18.24.532 23.994.532zm0 4.315l-.14.007c-.876.08-1.604.917-1.604 1.89v8.632c0 .959.807 1.765 1.744 1.765l.152-.005c.947-.065 1.636-.746 1.636-1.76V6.744l-.006-.153c-.071-.957-.809-1.744-1.782-1.744z" id="SOUL_svg__a"/></defs><g fill="none" fill-rule="evenodd"><path d="M8 0h122v130H8a8 8 0 01-8-8V8a8 8 0 018-8z"/><circle cx="40" cy="40" r="40" transform="translate(25 25)"/><use fill="currentColor" xmlns:xlink="http://www.w3.org/1999/xlink" xlink:href="#SOUL_svg__a" transform="translate(39.4 45.8)"/></g></svg>