<svg xmlns="http://www.w3.org/2000/svg" viewBox="0 0 130 130" color="#FFFFFF" data-test="newsnow-callSign" style="height: 100%; width: 100%;"><g fill="none" fill-rule="evenodd"><path d="M8 0h122v130H8a8 8 0 01-8-8V8a8 8 0 018-8z"/><circle cx="40" cy="40" r="40" transform="translate(25 25)"/><path d="M94.637 77.428v6.46l-1.436-.032-1.862-3.309 1.745-3.119h1.553zm-13.319.06l.125 1.745-2.155.008.003.834 1.755-.002.004 1.74-1.768.004.012 2.068-1.804.004-.015-6.392 3.843-.01zm-4.978-.06v6.46H36.2v-6.46h40.14zm15.685.044l-1.743 3.057 1.932 3.31-2.034.006-.89-1.608-.88 1.619-1.975-.002 1.877-3.296-1.793-3.071 2.042-.005.74 1.372.749-1.377 1.975-.005zm-7.649.107c1.675-.008 3.046 1.381 3.05 3.1.005 1.714-1.358 3.109-3.033 3.112-1.685.004-3.05-1.382-3.055-3.096-.003-1.719 1.353-3.116 3.038-3.116zm.009 1.274c-.284.002-.518.264-.517.553l.008 2.547a.52.52 0 00.519.524.53.53 0 00.533-.52l-.006-2.553a.56.56 0 00-.537-.55zM62.202 58.5c4.992 0 9.046 4.134 9.046 9.235 0 5.1-4.055 9.234-9.046 9.234-5.005 0-9.056-4.134-9.056-9.234s4.051-9.235 9.056-9.235zm-20.809.432l5.998 9.449v-9.45h5.092v17.284h-5.239l-5.973-9.425v9.425h-5.067V58.932h5.19zm33.61 0l2.326 9.694 2.179-9.694h5.434l2.13 9.743 2.326-9.743h5.214l-4.7 17.283h-5.337l-2.35-10.282-2.35 10.282h-5.312l-4.798-17.283h5.239zm-12.777 3.366c-.847 0-1.543.774-1.543 1.64v7.565c0 .866.696 1.567 1.543 1.567.84 0 1.578-.68 1.578-1.545l.002-7.587c0-.866-.74-1.64-1.58-1.64zm32.411-14.784V57.74L36.2 57.687l.007-10.173h58.43zm-30.81.912c-.691 0-1.28.122-1.767.368-.486.245-.826.587-1.02 1.025-.066.149-.118.3-.155.451a2.034 2.034 0 00-.056.485c0 .179.017.338.05.48.033.14.076.274.128.4.164.365.427.647.791.848.364.2.777.364 1.238.49.237.067.473.13.707.19.234.06.45.126.647.2.197.075.368.16.513.257.145.096.25.22.317.367.03.06.052.123.067.19a1.03 1.03 0 01-.078.658c-.082.185-.234.328-.457.429-.223.1-.498.15-.825.15-.683 0-1.13-.223-1.337-.669a1.612 1.612 0 01-.118-.552l-.005-.172H60.65c.008.223.028.435.062.635.033.2.09.387.173.558.207.453.56.813 1.058 1.08.498.268 1.14.402 1.929.402.75 0 1.389-.125 1.917-.373.527-.25.899-.612 1.114-1.087.067-.149.119-.308.156-.48.037-.17.056-.352.056-.546a2.83 2.83 0 00-.044-.523 1.997 1.997 0 00-.134-.435 1.57 1.57 0 00-.368-.518 2.809 2.809 0 00-.53-.385 3.898 3.898 0 00-.652-.29 10.662 10.662 0 00-.735-.223 15.983 15.983 0 00-.691-.178 5.154 5.154 0 01-.608-.178 2.447 2.447 0 01-.473-.229.761.761 0 01-.29-.317 1.054 1.054 0 01-.056-.357c0-.067.004-.128.011-.184a.543.543 0 01.056-.173.882.882 0 01.43-.407c.203-.1.447-.15.73-.15.594 0 .987.204 1.18.613.066.149.105.328.118.539l.005.163h1.705c0-.43-.07-.814-.211-1.148a2.138 2.138 0 00-1.015-1.048c-.468-.237-1.04-.356-1.716-.356zm-24.822.2h-1.683v7.87h1.606V51.1l3.466 5.394h1.694v-7.869h-1.605v5.406l-3.478-5.406zm10.69 0h-5.039v7.87h5.038v-1.372h-3.388v-1.95h3.355v-1.349h-3.355v-1.828h3.388v-1.37zm2.017 0h-1.65l2.24 7.87h1.728l1.427-5.652 1.426 5.651h1.75l2.207-7.869h-1.65l-1.47 5.54-1.372-5.54h-1.76l-1.394 5.562-1.482-5.562z" fill="currentColor"/></g></svg>